<svg width="62" height="62" viewBox="0 0 62 62" fill="none" xmlns="http://www.w3.org/2000/svg">
<g clip-path="url(#clip0_300_5735)">
<path d="M40.2938 56.2242C42.0123 56.2242 43.4054 53.7754 43.4054 50.7547C43.4054 47.7339 42.0123 45.2852 40.2938 45.2852C38.5753 45.2852 37.1821 47.7339 37.1821 50.7547C37.1821 53.7754 38.5753 56.2242 40.2938 56.2242Z" fill="url(#paint0_linear_300_5735)"/>
<path d="M26.6121 16.4527C28.3307 16.4527 29.7238 14.0039 29.7238 10.9832C29.7238 7.96246 28.3307 5.51367 26.6121 5.51367C24.8936 5.51367 23.5005 7.96246 23.5005 10.9832C23.5005 14.0039 24.8936 16.4527 26.6121 16.4527Z" fill="url(#paint1_linear_300_5735)"/>
<path d="M26.9835 43.0342C28.6107 43.0342 29.9297 40.7137 29.9297 37.8511C29.9297 34.9885 28.6107 32.668 26.9835 32.668C25.3564 32.668 24.0374 34.9885 24.0374 37.8511C24.0374 40.7137 25.3564 43.0342 26.9835 43.0342Z" fill="url(#paint2_linear_300_5735)"/>
<path d="M40.3341 30.4813C42.0236 30.4813 43.3933 28.0722 43.3933 25.1005C43.3933 22.1288 42.0236 19.7197 40.3341 19.7197C38.6445 19.7197 37.2749 22.1288 37.2749 25.1005C37.2749 28.0722 38.6445 30.4813 40.3341 30.4813Z" fill="url(#paint3_linear_300_5735)"/>
<path d="M39.3574 0H29.3566C19.3961 0 11.3163 7.73639 10.8764 17.6549H10.4203C4.68536 17.6549 0.0158691 22.3177 0.0158691 28.0535C0.0158691 33.7892 4.68536 38.452 10.4203 38.452H14.3916C15.5176 39.5169 20.7077 44.0708 27.1853 44.0708C33.6628 44.0708 38.5583 39.7508 39.8135 38.6053C41.0525 39.5572 43.7081 41.8079 48.5713 46.7854C46.4161 45.5914 43.5224 44.454 40.3301 44.454C34.1633 44.454 29.1144 48.6287 27.714 49.9074C27.6373 49.98 27.5727 50.0405 27.5202 50.0848L26.7898 50.7625L26.3216 51.2263L26.2328 51.3231L26.2772 51.4441C28.5575 57.7567 34.6072 61.996 41.3269 61.996C45.6009 61.996 49.6166 60.3341 52.6394 57.313C55.6421 54.312 57.3089 50.3188 57.3251 46.0714L57.3412 17.9736C57.3452 8.06311 49.2776 0 39.3574 0ZM40.2937 55.5705C38.9861 55.5705 37.8359 53.3198 37.8359 50.7544C37.8359 48.1891 38.9821 45.9383 40.2937 45.9383C41.6054 45.9383 42.7516 48.1891 42.7516 50.7544C42.7516 53.3198 41.6054 55.5705 40.2937 55.5705ZM37.8924 46.0029C37.0328 47.1444 36.5323 48.8707 36.5323 50.7584C36.5323 52.6461 36.9964 54.2233 37.7875 55.3648C33.5175 54.5097 30.0306 51.7588 28.8117 50.6939C30.0427 49.621 33.574 46.8378 37.8924 46.0029V46.0029ZM42.7919 55.3769C43.591 54.2354 44.0592 52.5534 44.0592 50.7544C44.0592 48.8586 43.5547 47.1242 42.687 45.9827C47.0498 46.7934 50.6175 49.6048 51.8605 50.6899C50.6296 51.7628 47.1063 54.5379 42.796 55.3769H42.7919ZM40.3341 56.9258C46.6018 56.9258 51.7031 52.6219 52.9986 51.428L53.9551 50.5366L53.8179 50.3873C46.517 42.4735 42.3964 38.9885 40.7982 37.7461C46.9892 32.7243 52.6556 26.4642 53.2932 25.7543L53.7493 25.3026L53.2852 24.8387C53.0471 24.6048 47.4211 19.0626 40.3301 19.0626C34.3328 19.0626 29.401 23.0034 27.835 24.4071C24.1261 21.1803 20.5463 17.3 17.9351 14.2829C20.3041 15.7632 23.557 17.2153 27.1974 17.2153C34.2843 17.2153 39.9144 11.6772 40.1525 11.4392L40.6166 10.9753L40.1525 10.5115C39.9184 10.2775 34.2843 4.73541 27.1974 4.73541C23.6458 4.73541 20.4656 6.11892 18.1288 7.54681C21.3696 4.22718 25.7929 2.34754 30.4785 2.34754H39.3534C47.9699 2.34754 54.9802 9.35385 54.9802 17.9655L54.9722 45.9988C54.9722 53.5214 48.8498 59.6404 41.3229 59.6404C36.4637 59.6404 32.0566 57.1194 29.5987 52.9971C31.8992 54.675 35.818 56.9137 40.322 56.9137L40.3341 56.9258ZM29.5261 6.2722C33.8969 7.07488 37.4767 9.89434 38.7278 10.9834C37.4807 12.0725 33.9009 14.8919 29.5261 15.6946C30.3655 14.5531 30.8579 12.8389 30.8579 10.9834C30.8579 9.12797 30.3696 7.4137 29.5261 6.2722V6.2722ZM24.6346 10.9834C24.6346 8.41806 25.7808 6.16733 27.0924 6.16733C28.4041 6.16733 29.5503 8.41806 29.5503 10.9834C29.5503 13.5488 28.4041 15.7995 27.0924 15.7995C25.7808 15.7995 24.6346 13.5488 24.6346 10.9834V10.9834ZM23.327 10.9834C23.327 12.8106 23.8032 14.5047 24.6225 15.6462C20.3647 14.783 16.8898 12.0402 15.675 10.9834C16.8898 9.92258 20.3647 7.18379 24.6225 6.3206C23.8032 7.4621 23.327 9.16024 23.327 10.9834V10.9834ZM44.039 25.0969C44.039 23.3503 43.6112 21.7571 42.8525 20.6317C47.1386 21.4828 50.6336 24.2418 51.8565 25.3066C50.5811 26.4158 46.9247 29.2918 42.4771 30.0501C43.4538 28.9489 44.039 27.1177 44.039 25.0969V25.0969ZM36.6251 25.0969C36.6251 27.1177 37.2103 28.9409 38.183 30.0461C35.4588 29.5782 33.0615 28.3197 31.4915 27.3113C30.6521 26.7184 29.7642 26.0327 28.844 25.2703C30.0709 24.2095 33.5579 21.4707 37.8117 20.6277C37.0529 21.753 36.6251 23.3463 36.6251 25.0969V25.0969ZM40.1202 20.3776H40.5157C41.7467 20.5752 42.7475 22.6929 42.7475 25.0969C42.7475 27.6178 41.6175 29.8323 40.3341 29.8323C39.0507 29.8323 37.9207 27.6178 37.9207 25.0969C37.9207 22.5759 38.9215 20.5752 40.1242 20.3776H40.1202ZM25.0987 42.5905C20.623 41.8483 16.9423 38.9522 15.6589 37.8349C16.9423 36.7135 20.6391 33.8134 25.127 33.0753C24.1866 34.1401 23.6216 35.8988 23.6216 37.847C23.6216 39.7952 24.1745 41.5175 25.0987 42.5864V42.5905ZM29.518 37.851C29.518 40.2752 28.4364 42.4049 27.2014 42.4049C25.9664 42.4049 24.8848 40.2792 24.8848 37.851C24.8848 35.4228 25.9664 33.2971 27.2014 33.2971C28.4364 33.2971 29.518 35.4228 29.518 37.851ZM30.7772 37.851C30.7772 35.9068 30.2122 34.1482 29.2799 33.0833C33.7516 33.8255 37.4323 36.7216 38.7117 37.8349C37.4364 38.9481 33.7678 41.8321 29.3081 42.5824C30.2283 41.5135 30.7812 39.767 30.7812 37.847L30.7772 37.851ZM27.1853 31.599C23.8234 31.599 19.6342 33.7085 17.4346 34.967C16.5427 35.4752 15.7113 36.0601 14.9526 36.7135L14.6136 36.2134C13.7015 34.8137 13.2172 33.1922 13.2172 31.5264V19.6112C13.2172 17.1386 13.7297 14.7548 14.7387 12.5202C16.8656 15.1098 21.9265 21.0431 27.1974 25.5849L27.375 25.7624C27.609 25.9964 33.2391 31.5385 40.3301 31.5385C42.7274 31.5385 45.1892 30.9173 47.6673 29.683C45.5161 31.7966 42.6265 34.5032 39.6359 36.9072C38.1103 35.5478 33.1583 31.599 27.1812 31.599H27.1853ZM11.8409 36.0561H10.4244C6.00912 36.0561 2.41721 32.4662 2.41721 28.0494C2.41721 23.6327 6.00912 20.0468 10.4244 20.0468H10.8602V31.5264C10.8602 33.0793 11.1992 34.6403 11.8409 36.0561Z" fill="url(#paint4_linear_300_5735)"/>
</g>
<defs>
<linearGradient id="paint0_linear_300_5735" x1="40.2938" y1="7.79715" x2="40.2938" y2="54.4091" gradientUnits="userSpaceOnUse">
<stop stop-color="#E02DA7"/>
<stop offset="0.04" stop-color="#DA2EA8"/>
<stop offset="0.09" stop-color="#CB32AC"/>
<stop offset="0.14" stop-color="#B139B3"/>
<stop offset="0.2" stop-color="#8E43BC"/>
<stop offset="0.26" stop-color="#604FC8"/>
<stop offset="0.33" stop-color="#295FD6"/>
<stop offset="0.36" stop-color="#0569E0"/>
<stop offset="0.56" stop-color="#0A76BA"/>
<stop offset="1" stop-color="#17995E"/>
</linearGradient>
<linearGradient id="paint1_linear_300_5735" x1="26.6121" y1="-5.03411" x2="26.6121" y2="41.5778" gradientUnits="userSpaceOnUse">
<stop stop-color="#E02DA7"/>
<stop offset="0.09" stop-color="#DC2EA7"/>
<stop offset="0.18" stop-color="#D031AA"/>
<stop offset="0.27" stop-color="#BD36AF"/>
<stop offset="0.35" stop-color="#A33DB6"/>
<stop offset="0.43" stop-color="#8047BF"/>
<stop offset="0.52" stop-color="#5652CA"/>
<stop offset="0.6" stop-color="#2560D7"/>
<stop offset="0.64" stop-color="#0569E0"/>
<stop offset="0.7" stop-color="#066DD2"/>
<stop offset="0.8" stop-color="#0B7AB0"/>
<stop offset="0.94" stop-color="#138E79"/>
<stop offset="1" stop-color="#17995E"/>
</linearGradient>
<linearGradient id="paint2_linear_300_5735" x1="26.9835" y1="15.2793" x2="26.9835" y2="61.8912" gradientUnits="userSpaceOnUse">
<stop stop-color="#E02DA7"/>
<stop offset="0.28" stop-color="#5D50C8"/>
<stop offset="0.48" stop-color="#0569E0"/>
<stop offset="0.56" stop-color="#066DD2"/>
<stop offset="0.71" stop-color="#0B7AB0"/>
<stop offset="0.91" stop-color="#138E79"/>
<stop offset="1" stop-color="#17995E"/>
</linearGradient>
<linearGradient id="paint3_linear_300_5735" x1="40.3341" y1="16.7026" x2="40.3341" y2="63.3145" gradientUnits="userSpaceOnUse">
<stop stop-color="#E02DA7"/>
<stop offset="0.07" stop-color="#DA2EA8"/>
<stop offset="0.16" stop-color="#CB32AC"/>
<stop offset="0.25" stop-color="#B139B3"/>
<stop offset="0.36" stop-color="#8E43BC"/>
<stop offset="0.47" stop-color="#604FC8"/>
<stop offset="0.58" stop-color="#295FD6"/>
<stop offset="0.64" stop-color="#0569E0"/>
<stop offset="0.7" stop-color="#066DD2"/>
<stop offset="0.8" stop-color="#0B7AB0"/>
<stop offset="0.94" stop-color="#138E79"/>
<stop offset="1" stop-color="#17995E"/>
</linearGradient>
<linearGradient id="paint4_linear_300_5735" x1="0.0158691" y1="31.002" x2="57.3452" y2="31.002" gradientUnits="userSpaceOnUse">
<stop stop-color="#E02DA7"/>
<stop offset="0.07" stop-color="#DA2EA8"/>
<stop offset="0.16" stop-color="#CB32AC"/>
<stop offset="0.25" stop-color="#B139B3"/>
<stop offset="0.36" stop-color="#8E43BC"/>
<stop offset="0.47" stop-color="#604FC8"/>
<stop offset="0.58" stop-color="#295FD6"/>
<stop offset="0.64" stop-color="#0569E0"/>
<stop offset="0.7" stop-color="#066DD2"/>
<stop offset="0.8" stop-color="#0B7AB0"/>
<stop offset="0.94" stop-color="#138E79"/>
<stop offset="1" stop-color="#17995E"/>
</linearGradient>
<clipPath id="clip0_300_5735">
<rect width="61.8268" height="62" fill="white" transform="translate(0.0158691)"/>
</clipPath>
</defs>
</svg>
